<?xml version="1.0" encoding="utf-8"?>
<!-- Generator: Adobe Illustrator 21.0.1, SVG Export Plug-In . SVG Version: 6.00 Build 0)  -->
<svg version="1.1" xmlns="http://www.w3.org/2000/svg" xmlns:xlink="http://www.w3.org/1999/xlink" x="0px" y="0px"
	 viewBox="0 0 228.9 53.8" style="enable-background:new 0 0 228.9 53.8;" xml:space="preserve">
<style type="text/css">
	.st0{display:none;}
	.st1{display:inline;fill:#294C99;}
	.st2{display:inline;fill:#DB046A;}
	.st3{fill:#FFFFFF;}
	.st4{fill:#DB046A;}
</style>
<g id="img" class="st0">
	<path class="st1" d="M27.1,26.9h-3.8l-5.5,9.2l0,0l-3.4,5.7l0,0l-3.4,5.7c4.4,3.5,10,5.5,16,5.5c14.4,0,26-11.7,26-26.1
		C53,12.5,41.3,0.8,26.9,0.8c-6.6,0-12.7,2.5-17.2,6.5h17c10.8,0,19.7,8.7,19.7,19.5c0,10.8-8.8,19.6-19.5,19.6
		c-2.5,0-4.8-0.5-7-1.3l3.4-5.7l3.7-6.2l3.7,6.2c5.3-1.6,9.2-6.6,9.2-12.5c0-7.2-6-13-13.2-13H4.4c-1.2,2-2.1,4.2-2.7,6.5h25.2
		c3.6,0,6.5,2.9,6.5,6.5v4.3l-0.6-1C31.7,28.1,29.4,26.9,27.1,26.9L27.1,26.9z"/>
	<path class="st2" d="M15.6,26.9H0.9c0,5.9,2,11.4,5.3,15.8L15.6,26.9z"/>
	<path class="st1" d="M120.7,35.9v4.1h-19.6V13.8h19v4.1H106v6.8h12.6v4H106v7.2H120.7z"/>
	<path class="st1" d="M126.1,13.8h4.8v22h13.6v4.1h-18.5V13.8z"/>
	<path class="st1" d="M71.4,39.9h11.4c2.8,0,5.3-0.5,7.4-1.6c2.2-1.1,3.8-2.6,5-4.6s1.8-4.3,1.8-6.8S96.4,22,95.2,20s-2.9-3.5-5-4.6
		c-2.2-1.1-4.6-1.6-7.4-1.6H71.4v19.9l4.8-8.3v-7.5h6.3c1.9,0,3.6,0.4,5.1,1.1c1.4,0.7,2.6,1.8,3.3,3.1c0.8,1.3,1.2,2.9,1.2,4.7
		s-0.4,3.4-1.2,4.7s-1.9,2.4-3.3,3.1s-3.1,1.1-5.1,1.1h-6.3v-4.2L71.4,39.9L71.4,39.9z"/>
	<polygon class="st1" points="148.4,28.2 148.4,39.9 153.2,39.9 153.2,19.9 	"/>
	<path class="st1" d="M165.6,17.9h-8.6v-4.1H179v4.1h-8.6v22h-4.8V17.9z"/>
	<path class="st1" d="M202.2,35.9v4.1h-19.6V13.8h19v4.1h-14.2v6.8h12.6v4h-12.6v7.2H202.2z"/>
	<path class="st1" d="M209.9,37.1c0.8-1.3,1.5-2.5,2.2-3.7c-1.9-1.6-3.1-4-3.1-6.5c0-4.8,4.2-8.8,9.3-8.8c2.7,0,5.2,1.1,6.9,2.9
		l3.2-2.8c-2.5-2.7-6.1-4.3-10.1-4.3c-7.5,0-13.5,5.8-13.5,13C204.7,31.1,206.7,34.8,209.9,37.1L209.9,37.1z"/>
	<path class="st1" d="M225.1,32.8c-1.7,1.8-4.2,2.9-6.9,2.9c-1.3,0-2.5-0.2-3.6-0.7c-0.7,1.2-1.4,2.4-2.1,3.7
		c1.7,0.8,3.7,1.2,5.7,1.2c4,0,7.6-1.7,10.1-4.4L225.1,32.8L225.1,32.8z"/>
	<polygon class="st2" points="153.2,13.8 148.4,13.8 148.4,22.2 	"/>
</g>
<g id="Слой_2">
	<path class="st3" d="M27.2,26.5h-3.8l-5.5,9.2l0,0l-3.4,5.7l0,0L11,47.1c4.4,3.5,10,5.5,16,5.5c14.4,0,26-11.7,26-26.1
		C53.1,12.1,41.4,0.5,27,0.5C20.4,0.5,14.4,2.9,9.8,7h17c10.8,0,19.7,8.7,19.7,19.5c0,10.8-8.8,19.6-19.5,19.6c-2.5,0-4.8-0.5-7-1.3
		l3.4-5.7l3.7-6.2l3.7,6.2c5.3-1.6,9.2-6.6,9.2-12.5c0-7.2-6-13-13.2-13H4.5c-1.2,2-2.1,4.2-2.7,6.5h25.2c3.6,0,6.5,2.9,6.5,6.5v4.3
		l-0.6-1C31.8,27.8,29.6,26.5,27.2,26.5L27.2,26.5z"/>
	<path class="st4" d="M15.8,26.5H1c0,5.9,2,11.4,5.3,15.8L15.8,26.5z"/>
	<path class="st3" d="M120.8,35.5v4.1h-19.6V13.5h19v4.1h-14.2v6.8h12.6v4h-12.6v7.2H120.8z"/>
	<path class="st3" d="M126.2,13.5h4.8v22h13.6v4.1h-18.5V13.5z"/>
	<path class="st3" d="M71.5,39.5h11.4c2.8,0,5.3-0.5,7.4-1.6c2.2-1.1,3.8-2.6,5-4.6s1.8-4.3,1.8-6.8s-0.6-4.9-1.8-6.8
		s-2.9-3.5-5-4.6c-2.2-1.1-4.6-1.6-7.4-1.6H71.5v19.9l4.8-8.3v-7.5h6.3c1.9,0,3.6,0.4,5.1,1.1c1.4,0.7,2.6,1.8,3.3,3.1
		c0.8,1.3,1.2,2.9,1.2,4.7s-0.4,3.4-1.2,4.7s-1.9,2.4-3.3,3.1s-3.1,1.1-5.1,1.1h-6.3v-4.2L71.5,39.5L71.5,39.5z"/>
	<polygon class="st3" points="148.5,27.8 148.5,39.5 153.4,39.5 153.4,19.5 	"/>
	<path class="st3" d="M165.7,17.6H157v-4.1h22.1v4.1h-8.6v22h-4.8V17.6z"/>
	<path class="st3" d="M202.4,35.5v4.1h-19.6V13.5h19v4.1h-14.2v6.8h12.6v4h-12.6v7.2H202.4z"/>
	<path class="st3" d="M210,36.8c0.8-1.3,1.5-2.5,2.2-3.7c-1.9-1.6-3.1-4-3.1-6.5c0-4.8,4.2-8.8,9.3-8.8c2.7,0,5.2,1.1,6.9,2.9
		l3.2-2.8c-2.5-2.7-6.1-4.3-10.1-4.3c-7.5,0-13.5,5.8-13.5,13C204.8,30.7,206.9,34.4,210,36.8L210,36.8z"/>
	<path class="st3" d="M225.3,32.4c-1.7,1.8-4.2,2.9-6.9,2.9c-1.3,0-2.5-0.2-3.6-0.7c-0.7,1.2-1.4,2.4-2.1,3.7
		c1.7,0.8,3.7,1.2,5.7,1.2c4,0,7.6-1.7,10.1-4.4L225.3,32.4L225.3,32.4z"/>
	<polygon class="st4" points="153.4,13.5 148.5,13.5 148.5,21.8 	"/>
</g>
</svg>
